<?xml version="1.0" standalone="no"?><!DOCTYPE svg PUBLIC "-//W3C//DTD SVG 1.1//EN" "http://www.w3.org/Graphics/SVG/1.1/DTD/svg11.dtd"><svg t="1688794085442" class="icon" viewBox="0 0 1024 1024" version="1.1" xmlns="http://www.w3.org/2000/svg" p-id="1543" xmlns:xlink="http://www.w3.org/1999/xlink" width="200" height="200"><path d="M256 63.936V192a64 64 0 0 0 56.512 63.552L320 256h320a64 64 0 0 0 64-64V63.936L768 64a96 96 0 0 1 96 96v328.064a256 256 0 0 0-187.968 472L192 960a96 96 0 0 1-96-96v-704A96 96 0 0 1 192 64l64-0.064zM800 544a192 192 0 1 1 0 384 192 192 0 0 1 0-384z m32 64h-64V704h-96v64H768v96h64V768h96v-64H832V608z m-352-64h-256V640h256V544z m192-192h-448V448h448V352zM608 64v96h-256V64h256z" fill="#ffffff" p-id="1544"></path></svg>